<mxfile host="65bd71144e" pages="3">
    <diagram id="qvU8fOkCh7TCd6aEzVCn" name="datamodel 1">
        <mxGraphModel dx="1518" dy="649" grid="1" gridSize="10" guides="1" tooltips="1" connect="1" arrows="1" fold="1" page="1" pageScale="1" pageWidth="1169" pageHeight="827" math="0" shadow="0">
            <root>
                <mxCell id="0"/>
                <mxCell id="1" parent="0"/>
                <mxCell id="y_ELRP8X6iaLbvrPIDpt-1" value="Categorie" style="swimlane;fontStyle=1;childLayout=stackLayout;horizontal=1;startSize=30;horizontalStack=0;resizeParent=1;resizeParentMax=0;resizeLast=0;collapsible=1;marginBottom=0;whiteSpace=wrap;html=1;" parent="1" vertex="1">
                    <mxGeometry x="180" y="150" width="140" height="90" as="geometry"/>
                </mxCell>
                <mxCell id="y_ELRP8X6iaLbvrPIDpt-2" value="name" style="text;strokeColor=none;fillColor=none;align=left;verticalAlign=middle;spacingLeft=4;spacingRight=4;overflow=hidden;points=[[0,0.5],[1,0.5]];portConstraint=eastwest;rotatable=0;whiteSpace=wrap;html=1;" parent="y_ELRP8X6iaLbvrPIDpt-1" vertex="1">
                    <mxGeometry y="30" width="140" height="30" as="geometry"/>
                </mxCell>
                <mxCell id="y_ELRP8X6iaLbvrPIDpt-3" value="&lt;div&gt;sousCategories&lt;/div&gt;" style="text;strokeColor=#6c8ebf;fillColor=#dae8fc;align=left;verticalAlign=middle;spacingLeft=4;spacingRight=4;overflow=hidden;points=[[0,0.5],[1,0.5]];portConstraint=eastwest;rotatable=0;whiteSpace=wrap;html=1;fontColor=#0000CC;fontStyle=1" parent="y_ELRP8X6iaLbvrPIDpt-1" vertex="1">
                    <mxGeometry y="60" width="140" height="30" as="geometry"/>
                </mxCell>
                <mxCell id="y_ELRP8X6iaLbvrPIDpt-5" value="SousCategorie" style="swimlane;fontStyle=1;childLayout=stackLayout;horizontal=1;startSize=30;horizontalStack=0;resizeParent=1;resizeParentMax=0;resizeLast=0;collapsible=1;marginBottom=0;whiteSpace=wrap;html=1;" parent="1" vertex="1">
                    <mxGeometry x="570" y="170" width="140" height="120" as="geometry"/>
                </mxCell>
                <mxCell id="y_ELRP8X6iaLbvrPIDpt-6" value="name" style="text;strokeColor=none;fillColor=none;align=left;verticalAlign=middle;spacingLeft=4;spacingRight=4;overflow=hidden;points=[[0,0.5],[1,0.5]];portConstraint=eastwest;rotatable=0;whiteSpace=wrap;html=1;" parent="y_ELRP8X6iaLbvrPIDpt-5" vertex="1">
                    <mxGeometry y="30" width="140" height="30" as="geometry"/>
                </mxCell>
                <mxCell id="y_ELRP8X6iaLbvrPIDpt-7" value="categorie" style="text;align=left;verticalAlign=middle;spacingLeft=4;spacingRight=4;overflow=hidden;points=[[0,0.5],[1,0.5]];portConstraint=eastwest;rotatable=0;whiteSpace=wrap;html=1;fontStyle=1;fillColor=#dae8fc;strokeColor=#6c8ebf;fontColor=#0000FF;" parent="y_ELRP8X6iaLbvrPIDpt-5" vertex="1">
                    <mxGeometry y="60" width="140" height="30" as="geometry"/>
                </mxCell>
                <mxCell id="y_ELRP8X6iaLbvrPIDpt-8" value="produits" style="text;strokeColor=#b85450;fillColor=#f8cecc;align=left;verticalAlign=middle;spacingLeft=4;spacingRight=4;overflow=hidden;points=[[0,0.5],[1,0.5]];portConstraint=eastwest;rotatable=0;whiteSpace=wrap;html=1;fontColor=#FF0000;fontStyle=1" parent="y_ELRP8X6iaLbvrPIDpt-5" vertex="1">
                    <mxGeometry y="90" width="140" height="30" as="geometry"/>
                </mxCell>
                <mxCell id="y_ELRP8X6iaLbvrPIDpt-9" value="Produit" style="swimlane;fontStyle=1;childLayout=stackLayout;horizontal=1;startSize=30;horizontalStack=0;resizeParent=1;resizeParentMax=0;resizeLast=0;collapsible=1;marginBottom=0;whiteSpace=wrap;html=1;" parent="1" vertex="1">
                    <mxGeometry x="940" y="230" width="140" height="120" as="geometry"/>
                </mxCell>
                <mxCell id="y_ELRP8X6iaLbvrPIDpt-10" value="libelle" style="text;strokeColor=none;fillColor=none;align=left;verticalAlign=middle;spacingLeft=4;spacingRight=4;overflow=hidden;points=[[0,0.5],[1,0.5]];portConstraint=eastwest;rotatable=0;whiteSpace=wrap;html=1;" parent="y_ELRP8X6iaLbvrPIDpt-9" vertex="1">
                    <mxGeometry y="30" width="140" height="30" as="geometry"/>
                </mxCell>
                <mxCell id="y_ELRP8X6iaLbvrPIDpt-11" value="price" style="text;strokeColor=none;fillColor=none;align=left;verticalAlign=middle;spacingLeft=4;spacingRight=4;overflow=hidden;points=[[0,0.5],[1,0.5]];portConstraint=eastwest;rotatable=0;whiteSpace=wrap;html=1;" parent="y_ELRP8X6iaLbvrPIDpt-9" vertex="1">
                    <mxGeometry y="60" width="140" height="30" as="geometry"/>
                </mxCell>
                <mxCell id="y_ELRP8X6iaLbvrPIDpt-12" value="sousCategorie" style="text;strokeColor=#b85450;fillColor=#f8cecc;align=left;verticalAlign=middle;spacingLeft=4;spacingRight=4;overflow=hidden;points=[[0,0.5],[1,0.5]];portConstraint=eastwest;rotatable=0;whiteSpace=wrap;html=1;fontColor=#FF0000;fontStyle=1" parent="y_ELRP8X6iaLbvrPIDpt-9" vertex="1">
                    <mxGeometry y="90" width="140" height="30" as="geometry"/>
                </mxCell>
                <mxCell id="y_ELRP8X6iaLbvrPIDpt-15" value="" style="edgeStyle=orthogonalEdgeStyle;orthogonalLoop=1;jettySize=auto;html=1;endArrow=none;endFill=0;curved=1;shadow=0;sketch=0;strokeColor=#3333FF;strokeWidth=4;" parent="1" source="y_ELRP8X6iaLbvrPIDpt-2" target="y_ELRP8X6iaLbvrPIDpt-5" edge="1">
                    <mxGeometry relative="1" as="geometry"/>
                </mxCell>
                <mxCell id="y_ELRP8X6iaLbvrPIDpt-16" style="edgeStyle=orthogonalEdgeStyle;curved=1;rounded=0;orthogonalLoop=1;jettySize=auto;html=1;endArrow=none;endFill=0;strokeColor=#FF0000;strokeWidth=4;" parent="1" source="y_ELRP8X6iaLbvrPIDpt-7" target="y_ELRP8X6iaLbvrPIDpt-9" edge="1">
                    <mxGeometry relative="1" as="geometry"/>
                </mxCell>
                <mxCell id="y_ELRP8X6iaLbvrPIDpt-17" value="1" style="text;html=1;strokeColor=none;fillColor=none;align=center;verticalAlign=middle;whiteSpace=wrap;rounded=0;fontSize=21;" parent="1" vertex="1">
                    <mxGeometry x="310" y="160" width="60" height="30" as="geometry"/>
                </mxCell>
                <mxCell id="y_ELRP8X6iaLbvrPIDpt-18" value="*" style="text;html=1;strokeColor=none;fillColor=none;align=center;verticalAlign=middle;whiteSpace=wrap;rounded=0;fontSize=30;" parent="1" vertex="1">
                    <mxGeometry x="510" y="245" width="60" height="30" as="geometry"/>
                </mxCell>
                <mxCell id="y_ELRP8X6iaLbvrPIDpt-19" value="1" style="text;html=1;strokeColor=none;fillColor=none;align=center;verticalAlign=middle;whiteSpace=wrap;rounded=0;fontSize=21;" parent="1" vertex="1">
                    <mxGeometry x="700" y="215" width="60" height="30" as="geometry"/>
                </mxCell>
                <mxCell id="y_ELRP8X6iaLbvrPIDpt-23" value="*" style="text;html=1;strokeColor=none;fillColor=none;align=center;verticalAlign=middle;whiteSpace=wrap;rounded=0;fontSize=30;" parent="1" vertex="1">
                    <mxGeometry x="890" y="300" width="60" height="30" as="geometry"/>
                </mxCell>
            </root>
        </mxGraphModel>
    </diagram>
    <diagram name="datamodel 2" id="5sjR2KTDRLCtzcmspGMb">
        <mxGraphModel dx="1047" dy="448" grid="1" gridSize="10" guides="1" tooltips="1" connect="1" arrows="1" fold="1" page="1" pageScale="1" pageWidth="1169" pageHeight="827" math="0" shadow="0">
            <root>
                <mxCell id="n2NmXGndXQdZ218cxYRO-0"/>
                <mxCell id="n2NmXGndXQdZ218cxYRO-1" parent="n2NmXGndXQdZ218cxYRO-0"/>
                <mxCell id="n2NmXGndXQdZ218cxYRO-2" value="Commande" style="swimlane;fontStyle=1;childLayout=stackLayout;horizontal=1;startSize=30;horizontalStack=0;resizeParent=1;resizeParentMax=0;resizeLast=0;collapsible=1;marginBottom=0;whiteSpace=wrap;html=1;fillColor=#E6E6E6;swimlaneFillColor=#FAFAFA;gradientColor=#ffffff;sketch=1;rounded=0;fontFamily=Architects Daughter;fontSource=https%3A%2F%2Ffonts.googleapis.com%2Fcss%3Ffamily%3DArchitects%2BDaughter;" parent="n2NmXGndXQdZ218cxYRO-1" vertex="1">
                    <mxGeometry x="150" y="130" width="140" height="120" as="geometry">
                        <mxRectangle x="90" y="130" width="100" height="30" as="alternateBounds"/>
                    </mxGeometry>
                </mxCell>
                <mxCell id="n2NmXGndXQdZ218cxYRO-3" value="date" style="text;strokeColor=none;fillColor=none;align=left;verticalAlign=middle;spacingLeft=4;spacingRight=4;overflow=hidden;points=[[0,0.5],[1,0.5]];portConstraint=eastwest;rotatable=0;whiteSpace=wrap;html=1;sketch=1;rounded=0;fontFamily=Architects Daughter;fontSource=https%3A%2F%2Ffonts.googleapis.com%2Fcss%3Ffamily%3DArchitects%2BDaughter;" parent="n2NmXGndXQdZ218cxYRO-2" vertex="1">
                    <mxGeometry y="30" width="140" height="30" as="geometry"/>
                </mxCell>
                <mxCell id="n2NmXGndXQdZ218cxYRO-4" value="&lt;div&gt;seComposes&lt;/div&gt;" style="text;strokeColor=#6c8ebf;fillColor=#dae8fc;align=left;verticalAlign=middle;spacingLeft=4;spacingRight=4;overflow=hidden;points=[[0,0.5],[1,0.5]];portConstraint=eastwest;rotatable=0;whiteSpace=wrap;html=1;fontColor=#0000CC;fontStyle=1;sketch=1;rounded=0;fontFamily=Architects Daughter;fontSource=https%3A%2F%2Ffonts.googleapis.com%2Fcss%3Ffamily%3DArchitects%2BDaughter;" parent="n2NmXGndXQdZ218cxYRO-2" vertex="1">
                    <mxGeometry y="60" width="140" height="30" as="geometry"/>
                </mxCell>
                <mxCell id="WETJU9N4XNhLOjYj12W7-5" value="user" style="text;strokeColor=#00FF00;fillColor=#CCFFCC;align=left;verticalAlign=middle;spacingLeft=4;spacingRight=4;overflow=hidden;points=[[0,0.5],[1,0.5]];portConstraint=eastwest;rotatable=0;whiteSpace=wrap;html=1;fontColor=#009900;fontStyle=1;sketch=1;rounded=0;fontFamily=Architects Daughter;fontSource=https%3A%2F%2Ffonts.googleapis.com%2Fcss%3Ffamily%3DArchitects%2BDaughter;" parent="n2NmXGndXQdZ218cxYRO-2" vertex="1">
                    <mxGeometry y="90" width="140" height="30" as="geometry"/>
                </mxCell>
                <mxCell id="n2NmXGndXQdZ218cxYRO-5" value="SeCompose" style="swimlane;fontStyle=1;childLayout=stackLayout;horizontal=1;startSize=30;horizontalStack=0;resizeParent=1;resizeParentMax=0;resizeLast=0;collapsible=1;marginBottom=0;whiteSpace=wrap;html=1;fillColor=#E6E6E6;swimlaneFillColor=#FAFAFA;gradientColor=#ffffff;sketch=1;rounded=0;fontFamily=Architects Daughter;fontSource=https%3A%2F%2Ffonts.googleapis.com%2Fcss%3Ffamily%3DArchitects%2BDaughter;" parent="n2NmXGndXQdZ218cxYRO-1" vertex="1">
                    <mxGeometry x="520" y="100" width="140" height="120" as="geometry"/>
                </mxCell>
                <mxCell id="n2NmXGndXQdZ218cxYRO-6" value="quantite" style="text;strokeColor=none;fillColor=none;align=left;verticalAlign=middle;spacingLeft=4;spacingRight=4;overflow=hidden;points=[[0,0.5],[1,0.5]];portConstraint=eastwest;rotatable=0;whiteSpace=wrap;html=1;sketch=1;rounded=0;fontFamily=Architects Daughter;fontSource=https%3A%2F%2Ffonts.googleapis.com%2Fcss%3Ffamily%3DArchitects%2BDaughter;" parent="n2NmXGndXQdZ218cxYRO-5" vertex="1">
                    <mxGeometry y="30" width="140" height="30" as="geometry"/>
                </mxCell>
                <mxCell id="n2NmXGndXQdZ218cxYRO-7" value="commande" style="text;align=left;verticalAlign=middle;spacingLeft=4;spacingRight=4;overflow=hidden;points=[[0,0.5],[1,0.5]];portConstraint=eastwest;rotatable=0;whiteSpace=wrap;html=1;fontStyle=1;fillColor=#dae8fc;strokeColor=#6c8ebf;fontColor=#0000FF;sketch=1;rounded=0;fontFamily=Architects Daughter;fontSource=https%3A%2F%2Ffonts.googleapis.com%2Fcss%3Ffamily%3DArchitects%2BDaughter;" parent="n2NmXGndXQdZ218cxYRO-5" vertex="1">
                    <mxGeometry y="60" width="140" height="30" as="geometry"/>
                </mxCell>
                <mxCell id="n2NmXGndXQdZ218cxYRO-8" value="produit" style="text;strokeColor=#b85450;fillColor=#f8cecc;align=left;verticalAlign=middle;spacingLeft=4;spacingRight=4;overflow=hidden;points=[[0,0.5],[1,0.5]];portConstraint=eastwest;rotatable=0;whiteSpace=wrap;html=1;fontColor=#FF0000;fontStyle=1;sketch=1;rounded=0;fontFamily=Architects Daughter;fontSource=https%3A%2F%2Ffonts.googleapis.com%2Fcss%3Ffamily%3DArchitects%2BDaughter;" parent="n2NmXGndXQdZ218cxYRO-5" vertex="1">
                    <mxGeometry y="90" width="140" height="30" as="geometry"/>
                </mxCell>
                <mxCell id="n2NmXGndXQdZ218cxYRO-9" value="Produit" style="swimlane;fontStyle=1;childLayout=stackLayout;horizontal=1;startSize=30;horizontalStack=0;resizeParent=1;resizeParentMax=0;resizeLast=0;collapsible=1;marginBottom=0;whiteSpace=wrap;html=1;fillColor=#E6E6E6;swimlaneFillColor=#FAFAFA;gradientColor=#ffffff;sketch=1;rounded=0;fontFamily=Architects Daughter;fontSource=https%3A%2F%2Ffonts.googleapis.com%2Fcss%3Ffamily%3DArchitects%2BDaughter;" parent="n2NmXGndXQdZ218cxYRO-1" vertex="1">
                    <mxGeometry x="930" y="155" width="140" height="120" as="geometry"/>
                </mxCell>
                <mxCell id="n2NmXGndXQdZ218cxYRO-10" value="libelle" style="text;strokeColor=none;fillColor=none;align=left;verticalAlign=middle;spacingLeft=4;spacingRight=4;overflow=hidden;points=[[0,0.5],[1,0.5]];portConstraint=eastwest;rotatable=0;whiteSpace=wrap;html=1;sketch=1;rounded=0;fontFamily=Architects Daughter;fontSource=https%3A%2F%2Ffonts.googleapis.com%2Fcss%3Ffamily%3DArchitects%2BDaughter;" parent="n2NmXGndXQdZ218cxYRO-9" vertex="1">
                    <mxGeometry y="30" width="140" height="30" as="geometry"/>
                </mxCell>
                <mxCell id="n2NmXGndXQdZ218cxYRO-11" value="prix" style="text;strokeColor=none;fillColor=none;align=left;verticalAlign=middle;spacingLeft=4;spacingRight=4;overflow=hidden;points=[[0,0.5],[1,0.5]];portConstraint=eastwest;rotatable=0;whiteSpace=wrap;html=1;sketch=1;rounded=0;fontFamily=Architects Daughter;fontSource=https%3A%2F%2Ffonts.googleapis.com%2Fcss%3Ffamily%3DArchitects%2BDaughter;" parent="n2NmXGndXQdZ218cxYRO-9" vertex="1">
                    <mxGeometry y="60" width="140" height="30" as="geometry"/>
                </mxCell>
                <mxCell id="n2NmXGndXQdZ218cxYRO-12" value="seComposes" style="text;strokeColor=#b85450;fillColor=#f8cecc;align=left;verticalAlign=middle;spacingLeft=4;spacingRight=4;overflow=hidden;points=[[0,0.5],[1,0.5]];portConstraint=eastwest;rotatable=0;whiteSpace=wrap;html=1;fontColor=#FF0000;fontStyle=1;sketch=1;rounded=0;fontFamily=Architects Daughter;fontSource=https%3A%2F%2Ffonts.googleapis.com%2Fcss%3Ffamily%3DArchitects%2BDaughter;" parent="n2NmXGndXQdZ218cxYRO-9" vertex="1">
                    <mxGeometry y="90" width="140" height="30" as="geometry"/>
                </mxCell>
                <mxCell id="n2NmXGndXQdZ218cxYRO-13" value="" style="edgeStyle=orthogonalEdgeStyle;orthogonalLoop=1;jettySize=auto;html=1;endArrow=none;endFill=0;shadow=0;sketch=1;strokeColor=#3333FF;strokeWidth=4;rounded=0;curved=1;fontFamily=Architects Daughter;fontSource=https%3A%2F%2Ffonts.googleapis.com%2Fcss%3Ffamily%3DArchitects%2BDaughter;" parent="n2NmXGndXQdZ218cxYRO-1" source="n2NmXGndXQdZ218cxYRO-3" target="n2NmXGndXQdZ218cxYRO-5" edge="1">
                    <mxGeometry relative="1" as="geometry"/>
                </mxCell>
                <mxCell id="n2NmXGndXQdZ218cxYRO-14" style="edgeStyle=orthogonalEdgeStyle;rounded=0;orthogonalLoop=1;jettySize=auto;html=1;endArrow=none;endFill=0;strokeColor=#FF0000;strokeWidth=4;sketch=1;curved=1;fontFamily=Architects Daughter;fontSource=https%3A%2F%2Ffonts.googleapis.com%2Fcss%3Ffamily%3DArchitects%2BDaughter;" parent="n2NmXGndXQdZ218cxYRO-1" source="n2NmXGndXQdZ218cxYRO-7" target="n2NmXGndXQdZ218cxYRO-9" edge="1">
                    <mxGeometry relative="1" as="geometry"/>
                </mxCell>
                <mxCell id="n2NmXGndXQdZ218cxYRO-15" value="1" style="text;html=1;strokeColor=none;fillColor=none;align=center;verticalAlign=middle;whiteSpace=wrap;rounded=0;fontSize=21;sketch=1;fontFamily=Architects Daughter;fontSource=https%3A%2F%2Ffonts.googleapis.com%2Fcss%3Ffamily%3DArchitects%2BDaughter;" parent="n2NmXGndXQdZ218cxYRO-1" vertex="1">
                    <mxGeometry x="290" y="175" width="60" height="30" as="geometry"/>
                </mxCell>
                <mxCell id="n2NmXGndXQdZ218cxYRO-16" value="*" style="text;html=1;strokeColor=none;fillColor=none;align=center;verticalAlign=middle;whiteSpace=wrap;rounded=0;fontSize=30;sketch=1;fontFamily=Architects Daughter;fontSource=https%3A%2F%2Ffonts.googleapis.com%2Fcss%3Ffamily%3DArchitects%2BDaughter;" parent="n2NmXGndXQdZ218cxYRO-1" vertex="1">
                    <mxGeometry x="470" y="170" width="60" height="30" as="geometry"/>
                </mxCell>
                <mxCell id="n2NmXGndXQdZ218cxYRO-17" value="1" style="text;html=1;strokeColor=none;fillColor=none;align=center;verticalAlign=middle;whiteSpace=wrap;rounded=0;fontSize=21;sketch=1;fontFamily=Architects Daughter;fontSource=https%3A%2F%2Ffonts.googleapis.com%2Fcss%3Ffamily%3DArchitects%2BDaughter;" parent="n2NmXGndXQdZ218cxYRO-1" vertex="1">
                    <mxGeometry x="880" y="220" width="60" height="30" as="geometry"/>
                </mxCell>
                <mxCell id="n2NmXGndXQdZ218cxYRO-18" value="*" style="text;html=1;strokeColor=none;fillColor=none;align=center;verticalAlign=middle;whiteSpace=wrap;rounded=0;fontSize=30;sketch=1;fontFamily=Architects Daughter;fontSource=https%3A%2F%2Ffonts.googleapis.com%2Fcss%3Ffamily%3DArchitects%2BDaughter;" parent="n2NmXGndXQdZ218cxYRO-1" vertex="1">
                    <mxGeometry x="670" y="190" width="60" height="30" as="geometry"/>
                </mxCell>
                <mxCell id="WETJU9N4XNhLOjYj12W7-4" style="edgeStyle=none;html=1;endArrow=none;strokeColor=#00CC00;endFill=0;shadow=0;sketch=1;strokeWidth=4;rounded=0;curved=1;fontFamily=Architects Daughter;fontSource=https%3A%2F%2Ffonts.googleapis.com%2Fcss%3Ffamily%3DArchitects%2BDaughter;" parent="n2NmXGndXQdZ218cxYRO-1" source="WETJU9N4XNhLOjYj12W7-0" target="n2NmXGndXQdZ218cxYRO-2" edge="1">
                    <mxGeometry relative="1" as="geometry"/>
                </mxCell>
                <mxCell id="WETJU9N4XNhLOjYj12W7-0" value="User" style="swimlane;fontStyle=1;childLayout=stackLayout;horizontal=1;startSize=30;horizontalStack=0;resizeParent=1;resizeParentMax=0;resizeLast=0;collapsible=1;marginBottom=0;whiteSpace=wrap;html=1;fillColor=#E6E6E6;swimlaneFillColor=#FAFAFA;gradientColor=#ffffff;sketch=1;rounded=0;fontFamily=Architects Daughter;fontSource=https%3A%2F%2Ffonts.googleapis.com%2Fcss%3Ffamily%3DArchitects%2BDaughter;" parent="n2NmXGndXQdZ218cxYRO-1" vertex="1">
                    <mxGeometry x="140" y="400" width="140" height="120" as="geometry"/>
                </mxCell>
                <mxCell id="WETJU9N4XNhLOjYj12W7-1" value="libelle" style="text;strokeColor=none;fillColor=none;align=left;verticalAlign=middle;spacingLeft=4;spacingRight=4;overflow=hidden;points=[[0,0.5],[1,0.5]];portConstraint=eastwest;rotatable=0;whiteSpace=wrap;html=1;sketch=1;rounded=0;fontFamily=Architects Daughter;fontSource=https%3A%2F%2Ffonts.googleapis.com%2Fcss%3Ffamily%3DArchitects%2BDaughter;" parent="WETJU9N4XNhLOjYj12W7-0" vertex="1">
                    <mxGeometry y="30" width="140" height="30" as="geometry"/>
                </mxCell>
                <mxCell id="WETJU9N4XNhLOjYj12W7-2" value="price" style="text;strokeColor=none;fillColor=none;align=left;verticalAlign=middle;spacingLeft=4;spacingRight=4;overflow=hidden;points=[[0,0.5],[1,0.5]];portConstraint=eastwest;rotatable=0;whiteSpace=wrap;html=1;sketch=1;rounded=0;fontFamily=Architects Daughter;fontSource=https%3A%2F%2Ffonts.googleapis.com%2Fcss%3Ffamily%3DArchitects%2BDaughter;" parent="WETJU9N4XNhLOjYj12W7-0" vertex="1">
                    <mxGeometry y="60" width="140" height="30" as="geometry"/>
                </mxCell>
                <mxCell id="WETJU9N4XNhLOjYj12W7-3" value="commandes" style="text;strokeColor=#00FF00;fillColor=#CCFFCC;align=left;verticalAlign=middle;spacingLeft=4;spacingRight=4;overflow=hidden;points=[[0,0.5],[1,0.5]];portConstraint=eastwest;rotatable=0;whiteSpace=wrap;html=1;fontColor=#009900;fontStyle=1;sketch=1;rounded=0;fontFamily=Architects Daughter;fontSource=https%3A%2F%2Ffonts.googleapis.com%2Fcss%3Ffamily%3DArchitects%2BDaughter;" parent="WETJU9N4XNhLOjYj12W7-0" vertex="1">
                    <mxGeometry y="90" width="140" height="30" as="geometry"/>
                </mxCell>
                <mxCell id="WETJU9N4XNhLOjYj12W7-6" value="*" style="text;html=1;strokeColor=none;fillColor=none;align=center;verticalAlign=middle;whiteSpace=wrap;rounded=0;fontSize=30;sketch=1;fontFamily=Architects Daughter;fontSource=https%3A%2F%2Ffonts.googleapis.com%2Fcss%3Ffamily%3DArchitects%2BDaughter;" parent="n2NmXGndXQdZ218cxYRO-1" vertex="1">
                    <mxGeometry x="210" y="260" width="60" height="30" as="geometry"/>
                </mxCell>
                <mxCell id="WETJU9N4XNhLOjYj12W7-7" value="1" style="text;html=1;strokeColor=none;fillColor=none;align=center;verticalAlign=middle;whiteSpace=wrap;rounded=0;fontSize=21;sketch=1;fontFamily=Architects Daughter;fontSource=https%3A%2F%2Ffonts.googleapis.com%2Fcss%3Ffamily%3DArchitects%2BDaughter;" parent="n2NmXGndXQdZ218cxYRO-1" vertex="1">
                    <mxGeometry x="200" y="360" width="60" height="30" as="geometry"/>
                </mxCell>
            </root>
        </mxGraphModel>
    </diagram>
    <diagram id="WFek9CxEvEVqzc8Su83W" name="sequence">
        <mxGraphModel dx="1054" dy="627" grid="1" gridSize="10" guides="1" tooltips="1" connect="1" arrows="1" fold="1" page="1" pageScale="1" pageWidth="1654" pageHeight="1169" math="0" shadow="0">
            <root>
                <mxCell id="0"/>
                <mxCell id="1" parent="0"/>
                <mxCell id="0Z_T5asb1M4p-TbHcFMl-3" style="edgeStyle=orthogonalEdgeStyle;rounded=0;orthogonalLoop=1;jettySize=auto;html=1;endArrow=none;endFill=0;" parent="1" source="0Z_T5asb1M4p-TbHcFMl-1" edge="1">
                    <mxGeometry relative="1" as="geometry">
                        <mxPoint x="135" y="440" as="targetPoint"/>
                    </mxGeometry>
                </mxCell>
                <mxCell id="0Z_T5asb1M4p-TbHcFMl-1" value="Client" style="shape=umlActor;verticalLabelPosition=bottom;verticalAlign=top;html=1;" parent="1" vertex="1">
                    <mxGeometry x="120" y="50" width="30" height="60" as="geometry"/>
                </mxCell>
                <mxCell id="0Z_T5asb1M4p-TbHcFMl-4" style="edgeStyle=orthogonalEdgeStyle;rounded=0;orthogonalLoop=1;jettySize=auto;html=1;endArrow=none;endFill=0;" parent="1" source="0Z_T5asb1M4p-TbHcFMl-2" edge="1">
                    <mxGeometry relative="1" as="geometry">
                        <mxPoint x="400" y="440" as="targetPoint"/>
                    </mxGeometry>
                </mxCell>
                <mxCell id="0Z_T5asb1M4p-TbHcFMl-2" value="Enregistrer une commande" style="ellipse;whiteSpace=wrap;html=1;" parent="1" vertex="1">
                    <mxGeometry x="330" y="40" width="140" height="70" as="geometry"/>
                </mxCell>
                <mxCell id="0Z_T5asb1M4p-TbHcFMl-5" value="Accueil" style="html=1;verticalAlign=bottom;endArrow=block;rounded=0;" parent="1" edge="1">
                    <mxGeometry width="80" relative="1" as="geometry">
                        <mxPoint x="140" y="210" as="sourcePoint"/>
                        <mxPoint x="400" y="210" as="targetPoint"/>
                    </mxGeometry>
                </mxCell>
                <mxCell id="0Z_T5asb1M4p-TbHcFMl-6" value="Affichage de la liste des catégories" style="html=1;verticalAlign=bottom;endArrow=none;rounded=0;endFill=0;startArrow=classic;startFill=1;" parent="1" edge="1">
                    <mxGeometry width="80" relative="1" as="geometry">
                        <mxPoint x="140" y="270" as="sourcePoint"/>
                        <mxPoint x="400" y="270" as="targetPoint"/>
                    </mxGeometry>
                </mxCell>
            </root>
        </mxGraphModel>
    </diagram>
    <diagram id="nIWuVanevW5QCC5TR3JP" name="navigation">
        <mxGraphModel dx="1054" dy="627" grid="1" gridSize="10" guides="1" tooltips="1" connect="1" arrows="1" fold="1" page="1" pageScale="1" pageWidth="1654" pageHeight="1169" math="0" shadow="0">
            <root>
                <mxCell id="0"/>
                <mxCell id="1" parent="0"/>
                <mxCell id="nfhQ7ZnmFsP4aC9yg0e0-6" value="" style="rounded=1;whiteSpace=wrap;html=1;fillColor=#dae8fc;strokeColor=#6c8ebf;" parent="1" vertex="1">
                    <mxGeometry x="210" y="150" width="190" height="300" as="geometry"/>
                </mxCell>
                <mxCell id="nfhQ7ZnmFsP4aC9yg0e0-9" style="edgeStyle=orthogonalEdgeStyle;rounded=0;orthogonalLoop=1;jettySize=auto;html=1;entryX=0.5;entryY=0;entryDx=0;entryDy=0;startArrow=none;startFill=0;endArrow=classic;endFill=1;" parent="1" source="nfhQ7ZnmFsP4aC9yg0e0-1" target="nfhQ7ZnmFsP4aC9yg0e0-6" edge="1">
                    <mxGeometry relative="1" as="geometry"/>
                </mxCell>
                <mxCell id="nfhQ7ZnmFsP4aC9yg0e0-13" style="edgeStyle=orthogonalEdgeStyle;rounded=0;orthogonalLoop=1;jettySize=auto;html=1;entryX=0.5;entryY=0;entryDx=0;entryDy=0;startArrow=none;startFill=0;endArrow=classic;endFill=1;" parent="1" source="nfhQ7ZnmFsP4aC9yg0e0-1" target="nfhQ7ZnmFsP4aC9yg0e0-12" edge="1">
                    <mxGeometry relative="1" as="geometry">
                        <Array as="points">
                            <mxPoint x="310" y="120"/>
                            <mxPoint x="80" y="120"/>
                        </Array>
                    </mxGeometry>
                </mxCell>
                <mxCell id="nfhQ7ZnmFsP4aC9yg0e0-15" style="edgeStyle=orthogonalEdgeStyle;rounded=0;orthogonalLoop=1;jettySize=auto;html=1;startArrow=none;startFill=0;endArrow=classic;endFill=1;" parent="1" source="nfhQ7ZnmFsP4aC9yg0e0-1" target="nfhQ7ZnmFsP4aC9yg0e0-14" edge="1">
                    <mxGeometry relative="1" as="geometry">
                        <Array as="points">
                            <mxPoint x="310" y="120"/>
                            <mxPoint x="560" y="120"/>
                        </Array>
                    </mxGeometry>
                </mxCell>
                <mxCell id="nfhQ7ZnmFsP4aC9yg0e0-17" style="edgeStyle=orthogonalEdgeStyle;rounded=0;orthogonalLoop=1;jettySize=auto;html=1;entryX=0.5;entryY=0;entryDx=0;entryDy=0;startArrow=none;startFill=0;endArrow=classic;endFill=1;" parent="1" source="nfhQ7ZnmFsP4aC9yg0e0-1" target="nfhQ7ZnmFsP4aC9yg0e0-16" edge="1">
                    <mxGeometry relative="1" as="geometry">
                        <Array as="points">
                            <mxPoint x="310" y="120"/>
                            <mxPoint x="700" y="120"/>
                        </Array>
                    </mxGeometry>
                </mxCell>
                <mxCell id="nfhQ7ZnmFsP4aC9yg0e0-1" value="Accueil" style="rounded=1;whiteSpace=wrap;html=1;" parent="1" vertex="1">
                    <mxGeometry x="250" y="30" width="120" height="60" as="geometry"/>
                </mxCell>
                <mxCell id="nfhQ7ZnmFsP4aC9yg0e0-10" style="edgeStyle=orthogonalEdgeStyle;rounded=0;orthogonalLoop=1;jettySize=auto;html=1;entryX=0.5;entryY=0;entryDx=0;entryDy=0;startArrow=none;startFill=0;endArrow=classic;endFill=1;" parent="1" source="nfhQ7ZnmFsP4aC9yg0e0-2" target="nfhQ7ZnmFsP4aC9yg0e0-7" edge="1">
                    <mxGeometry relative="1" as="geometry"/>
                </mxCell>
                <mxCell id="nfhQ7ZnmFsP4aC9yg0e0-2" value="Liste des catégories" style="rounded=1;whiteSpace=wrap;html=1;" parent="1" vertex="1">
                    <mxGeometry x="245" y="170" width="120" height="60" as="geometry"/>
                </mxCell>
                <mxCell id="nfhQ7ZnmFsP4aC9yg0e0-11" style="edgeStyle=orthogonalEdgeStyle;rounded=0;orthogonalLoop=1;jettySize=auto;html=1;entryX=0.5;entryY=0;entryDx=0;entryDy=0;startArrow=none;startFill=0;endArrow=classic;endFill=1;" parent="1" source="nfhQ7ZnmFsP4aC9yg0e0-7" target="nfhQ7ZnmFsP4aC9yg0e0-8" edge="1">
                    <mxGeometry relative="1" as="geometry"/>
                </mxCell>
                <mxCell id="nfhQ7ZnmFsP4aC9yg0e0-7" value="Liste des sous catégories" style="rounded=1;whiteSpace=wrap;html=1;" parent="1" vertex="1">
                    <mxGeometry x="245" y="270" width="120" height="60" as="geometry"/>
                </mxCell>
                <mxCell id="nfhQ7ZnmFsP4aC9yg0e0-8" value="Liste des produits" style="rounded=1;whiteSpace=wrap;html=1;" parent="1" vertex="1">
                    <mxGeometry x="245" y="370" width="120" height="60" as="geometry"/>
                </mxCell>
                <mxCell id="nfhQ7ZnmFsP4aC9yg0e0-12" value="A propos" style="rounded=1;whiteSpace=wrap;html=1;" parent="1" vertex="1">
                    <mxGeometry x="20" y="150" width="120" height="60" as="geometry"/>
                </mxCell>
                <mxCell id="nfhQ7ZnmFsP4aC9yg0e0-14" value="Inscription" style="rounded=1;whiteSpace=wrap;html=1;" parent="1" vertex="1">
                    <mxGeometry x="500" y="150" width="120" height="60" as="geometry"/>
                </mxCell>
                <mxCell id="nfhQ7ZnmFsP4aC9yg0e0-16" value="Connexion" style="rounded=1;whiteSpace=wrap;html=1;" parent="1" vertex="1">
                    <mxGeometry x="640" y="150" width="120" height="60" as="geometry"/>
                </mxCell>
            </root>
        </mxGraphModel>
    </diagram>
</mxfile>